<?xml version="1.0" encoding="UTF-8"?>
<svg id="Ebene_1" xmlns="http://www.w3.org/2000/svg" version="1.1" viewBox="0 0 444.2 519">
  <!-- Generator: Adobe Illustrator 30.1.0, SVG Export Plug-In . SVG Version: 2.1.1 Build 136)  -->
  <defs>
    <style>
      .st0 {
        fill: #1e1f1d;
      }

      .st1 {
        fill: #fff;
      }

      .st2 {
        fill: #1e1e1c;
      }
    </style>
  </defs>
  <polygon class="st0" points="9.5 455.3 21.1 455.3 17.7 471.6 24.8 471.6 28.2 455.3 39.8 455.3 30.4 499.8 18.8 499.8 22.7 481.4 15.6 481.4 11.7 499.8 0 499.8 9.5 455.3 9.5 455.3"/>
  <polygon class="st0" points="44.9 455.3 56.5 455.3 47 499.8 35.4 499.8 44.9 455.3 44.9 455.3"/>
  <polygon class="st0" points="65.3 465.1 56.6 465.1 58.7 455.3 87.7 455.3 85.6 465.1 76.9 465.1 69.5 499.8 57.9 499.8 65.3 465.1 65.3 465.1"/>
  <polygon class="st0" points="106.1 455.3 122.7 455.3 121.7 481.6 121.9 481.6 132.1 455.3 148.7 455.3 139.3 499.8 128.4 499.8 135.5 466.6 135.3 466.6 122.1 499.8 113.8 499.8 114.6 466.6 114.5 466.6 107.5 499.8 96.6 499.8 106.1 455.3 106.1 455.3"/>
  <path class="st0" d="M164.9,455.3l-6.8,32.1c-.9,4.3.1,5.4,2.3,5.4s3.7-1.1,4.6-5.4l6.8-32.1h11.6l-6.2,29.2c-2.6,12.5-8.8,16.2-18.5,16.2s-14.3-3.7-11.6-16.2l6.2-29.2h11.6,0Z"/>
  <path class="st0" d="M203,468.1l.2-1.1c.6-2.6,0-4.8-2.3-4.8s-4.1,1.7-4.4,3.9c-1.9,8.8,18,4.5,14.5,20.8-2,9.5-8.5,13.7-18.7,13.7s-14.2-3.3-12.3-12.5l.3-1.6h11.2l-.2,1.1c-.8,3.8.5,5.2,2.7,5.2s4.1-1.9,4.7-4.3c1.9-8.8-17.3-4.4-13.9-20.2,1.9-9,7.8-13.9,17.5-13.9s13.5,4.2,11.5,13.7h-10.9.1Z"/>
  <polygon class="st0" points="221.5 455.3 233.1 455.3 223.6 499.8 212 499.8 221.5 455.3 221.5 455.3"/>
  <path class="st0" d="M253,468.8c1.1-5,.5-6.5-1.8-6.5-3.5,0-4.6,3.2-7.2,15.3s-2.9,15.3.7,15.3,4-2.5,5.8-10.9h11.2l-.7,3.3c-2.6,12.5-10.6,15.5-18,15.5-13,0-14.5-6.5-11-23.1,3.6-17,8.8-23.1,20.8-23.1s13.2,5.5,11.4,14.1l-.6,2.8h-11.1l.5-2.5h0v-.2Z"/>
  <path class="st0" d="M294.4,492.8c3.5,0,4.6-3.2,7.2-15.3s2.9-15.3-.7-15.3-4.6,3.2-7.2,15.3c-2.6,12-2.9,15.3.7,15.3ZM302.5,454.4c11.8,0,14.5,6.5,11,23.1s-9,23.1-20.8,23.1-14.5-6.5-11-23.1,9-23.1,20.8-23.1h0Z"/>
  <polygon class="st0" points="322.4 455.3 335.4 455.3 337 482.7 337.2 482.7 343 455.3 353.8 455.3 344.4 499.8 331.7 499.8 329.8 472.3 329.7 472.3 323.8 499.8 313 499.8 322.4 455.3 322.4 455.3"/>
  <polygon class="st0" points="359.3 455.3 370.9 455.3 363.5 490.3 377.8 490.3 375.7 499.8 349.9 499.8 359.3 455.3 359.3 455.3"/>
  <polygon class="st0" points="384.4 482.2 378.8 455.3 391.5 455.3 392.6 470.8 392.7 470.8 400.4 455.3 413.1 455.3 396 482.2 392.3 499.8 380.7 499.8 384.4 482.2 384.4 482.2"/>
  <path class="st0" d="M429.5,470.2l3.2-14.9h10.8l-3.1,14.9-4.9,16.7h-8.4l2.4-16.7ZM425.6,489.9h10.5l-2.1,9.8h-10.4l2.1-9.8h-.1Z"/>
  <path class="st1" d="M380.8,79.5c21.9,0,39.7-17.8,39.7-39.7S402.7,0,380.8,0s-39.7,17.8-39.7,39.7,17.8,39.7,39.7,39.7h0v.1ZM256.8,211.5c-7.8,2.6-30.7,11.2-30.7,11.2v-36.4s15.8-5.6,23.7-8.3,14.5,5,15,12.6c.4,6.7,1.6,16.5-8,21h0v-.1ZM327.5,112.5v38.5l26.1-9.2s.2,101.1,0,106.4c-2.8,30.8-35,21-45.5,13.1-3.3-2.4-27.4-19.2-27.4-19.2,23.4-8.3,60-38.3,41.9-79.1-22.7-41.5-62.7-27.9-62.7-27.9l-109.5,38.3v37.7l15.9-5.6v52.6l-70.6-66.3-72.7,25.4v37.8l21.9-8v107.7l-21.6,7.7v39.6l82.7-28.8v-89l45.4,41.4,116.7-31s15.5,12.3,27,20.6c19.8,14.4,43.6,17.5,70.4,10.2,29.4-8,54.9-34,54.9-72s.2-173.4.2-173.4l-93.2,32.3.1.2Z"/>
  <polygon class="st1" points="82.6 381.6 56.9 355.8 59.2 345.2 106.2 343.1 106.2 373.4 82.6 381.6 82.6 381.6"/>
  <path class="st0" d="M420.5,250.8c-2,30.4-21.3,55.4-61.8,57.8-19,1.6-30.2-5.2-39.7-10.5-17.5-8.6-45.9-34.4-64.1-41.3-12.9-5.2-30.5-7.3-48.5-3.2-18,4.1-27.8,10.5-35.1,16.1s-18.9,16.8-21.7,19.8-10.8,12.3-11.4,12.4-2.8-2.4-3.9-3.8-2.6-4-3-4.2c-.8.2-5.1,6.4-5.4,9.8s1.5,8.2,1.5,9.4c-.1,1-.8,1.9-1.8,2.2-.5,0-3.9-4.3-4.3-4.2s-2,2.8-2.5,4.7.3,6.5.3,6.5c-4.2,3.6-11.5,7.5-19.7,9.7-5.1,1.4-30,3.8-30.8,4.1s-12.2,10.3-12.2,10.3l.5,9.5,2.6-2.3,4.1,7.4,2.5-4.7s3.5,4.8,5.4,7.1c.8-3.9,5.1-12,11.6-14.1,6.2-2.3,37.5-3.1,38.5-3.2,0,.9-1.7,5.5-1.7,5.8,2.3,2.7,4.7,5.2,7.3,7.7.4.2,3.8-1,4.1-1.2.4-.5.7-1,.8-1.7.2,0,2.6.1,3.8-.6-3.2-1-3.2-2.9-2.4-4.6s5.9-2.4,8.5-.7,4.1,4.6,2.8,7.8c-1.1,2.8-4.7,1.5-5.5,1.3.3.5,2.8,2.2,2.9,2.4v.9s.8,1.1,1.2,1,10.9-5.7,11.7-6.2c1.7-1.5,3.2-3.2,4.3-5.2-2.1-1.5-3.4-3.9-3.4-6.5.2-4.2,3.9-6.6,8.1-6.1s6.4,4.2,5.2,8.9c-.9,3.8-20.1,26-37.3,34.7-6.8,3.9-14.5,5.9-22.4,5.9-.6.1-10.8,8.9-10.8,8.9l-.5,8,1.9-1,3,8.3,2.2-3.2,6.3,6.7,1.3-5.6,7.8,5.9s.4-3,.7-5.5l14-12.5c1.2-1.1,18.4-9.8,33.5-19.9,17.3-11.6,34-23.8,34.3-26.8-2.2-1.8-10.5-9.5-10.2-18.2s10.1-16.8,21.7-21.9,26.5-3.4,36.6,4.2c6.9,4.9,36.3,25.1,75.8,23,41.4-2.3,65.8-15.7,80.3-40.8s13.4-43.5,13.1-48.2h0l-.1-.3Z"/>
  <polygon class="st1" points="127.7 337.4 130.5 325.2 134.5 326.7 129.5 336.7 127.7 337.4 127.7 337.4"/>
  <polygon class="st2" points="23.1 168.3 49 159.4 49 166.9 32.7 172.4 32.7 176.6 47.8 171.4 47.8 178.9 32.7 184 32.7 188.2 49 182.6 48.9 190.1 23 198.9 23.1 168.3 23.1 168.3"/>
  <polygon class="st2" points="75.5 150.2 86.5 146.5 96.2 160.1 96.3 160.1 96.3 143.1 105.5 140 105.5 170.6 95 174.2 84.7 160.5 84.7 160.5 84.7 177.7 75.4 180.8 75.5 150.2 75.5 150.2"/>
  <polygon class="st2" points="133.5 130.2 159.4 121.4 159.4 128.8 143.1 134.4 143.1 138.5 158.3 133.3 158.3 140.8 143.1 146 143.1 150.1 159.4 144.5 159.4 152 133.5 160.8 133.5 130.2 133.5 130.2"/>
  <path class="st2" d="M195.5,122.3l6.8-2.3c1.7-.4,2.8-2,2.7-3.8,0-2.3-1.2-2.5-2.8-1.9l-6.7,2.3v5.7h0ZM185.9,112.1l20.3-6.9c2.8-1,4.4-1.2,5.8-.9,1.8.5,3.3,2.9,3.3,6.3s-1,6.3-3.8,8.3h0c1.4,0,2.6,1.3,2.8,3.9l.4,6.6c0,1.2.5,2.3,1.2,3.2l-10.5,3.6c-.3-.8-.3-2.1-.5-5.6-.1-2.2-.7-3.4-2.5-2.8l-6.8,2.3v9.4l-9.6,3.3v-30.6h0l-.1-.1Z"/>
  <path class="st2" d="M259.3,100.1l13.7-4.7v17.5l-4.1,1.4-1.1-2.4c-2.5,3.6-5.6,5.8-11.2,7.7-6.8,2.3-15.9,3.3-15.9-10.8s8.5-19.4,15.9-21.9c10.7-3.7,15.8-1.7,16.5,5.9l-10.9,3.7c0-1.1-.8-2.1-1.9-2.5-1.1-.2-2.2,0-3.3.4-3.9,1.3-6.4,4.6-6.4,10.9,0,5.7,2.4,7.9,7.2,6.2,2.7-.8,4.7-3,5.4-5.7l-4,1.3v-6.9h0l.1-.1Z"/>
  <polygon class="st2" points="307.7 92.2 296.9 73.9 307.9 70.1 312.5 80.5 317.1 67 328.1 63.2 317.3 88.9 317.3 97.5 307.7 100.8 307.7 92.2 307.7 92.2"/>
</svg>